<svg xmlns="http://www.w3.org/2000/svg" width="533.333" height="533.334"><path d="M133.333 300c0 18.41 14.924 33.333 33.333 33.333S200 318.41 200 300s-14.924-33.333-33.333-33.333S133.333 281.59 133.333 300zm200 0c0 18.41 14.924 33.333 33.333 33.333S400 318.41 400 300s-14.924-33.333-33.333-33.333S333.333 281.59 333.333 300zm1.621 71.238c8.585-6.763 21.029-5.288 27.796 3.298 6.765 8.587 5.287 21.03-3.3 27.796-23.905 18.832-60.324 31.001-92.783 31.001s-68.879-12.169-92.783-31.001c-8.586-6.766-10.062-19.209-3.298-27.796 6.765-8.584 19.209-10.061 27.794-3.298 13.762 10.843 41.001 22.512 68.287 22.512s54.524-11.669 68.287-22.512zm198.379-137.905c0-36.819-29.849-66.667-66.667-66.667-25.06 0-46.871 13.839-58.256 34.282-34.268-18.747-76.019-30.857-121.501-33.65l39.782-89.336 76.142 21.979c6.852 19.449 25.376 33.393 47.166 33.393 27.614 0 50-22.386 50-50s-22.386-50-50-50c-19.042 0-35.595 10.647-44.038 26.309l-84.848-24.491c-9.49-2.739-19.551 1.938-23.567 10.964l-54.048 121.368c-44.342 3.123-85.032 15.116-118.56 33.456-11.388-20.443-33.211-34.273-58.272-34.273C29.848 166.667 0 196.515 0 233.333c0 27.246 16.355 50.653 39.777 60.991-4.203 12.514-6.444 25.575-6.444 39.009C33.333 425.381 137.8 500 266.667 500 395.532 500 500 425.381 500 333.333c0-13.434-2.239-26.491-6.44-39.003 23.42-10.339 39.773-33.75 39.773-60.997zM450 64.583c10.355 0 18.75 8.395 18.75 18.75s-8.395 18.75-18.75 18.75-18.75-8.395-18.75-18.75 8.394-18.75 18.75-18.75zM33.333 233.333c0-18.38 14.953-33.333 33.333-33.333 13.285 0 24.777 7.814 30.128 19.087-17.42 13.211-31.857 28.449-42.534 45.174-12.252-4.931-20.927-16.932-20.927-30.928zm233.334 227.084c-107.005 0-193.75-56.897-193.75-127.084 0-70.186 86.745-127.083 193.75-127.083s193.75 56.897 193.75 127.083c0 70.187-86.746 127.084-193.75 127.084zm212.406-196.156c-10.677-16.725-25.113-31.964-42.534-45.175C441.89 207.814 453.381 200 466.667 200c18.38 0 33.333 14.953 33.333 33.333 0 13.996-8.675 25.997-20.927 30.928z"/></svg>